<svg width="1980" height="1140" viewBox="0 0 1980 1140" fill="none" xmlns="http://www.w3.org/2000/svg">
<g clip-path="url(#clip0_2002_177)" filter="url(#filter0_dd_2002_177)">
<rect width="1920" height="1080" transform="translate(26 26)" fill="#F81F1F"/>
<rect x="26" y="26" width="1920" height="1080" fill="#F8F9FA"/>
<g clip-path="url(#clip1_2002_177)">
<path d="M949.188 422.363C960.599 428.789 973.495 432.115 986.592 432.01C999.689 431.905 1012.53 428.372 1023.84 421.763C1035.14 415.153 1044.52 405.698 1051.04 394.338C1057.56 382.978 1060.99 370.11 1060.99 357.013C1060.99 343.915 1057.56 331.047 1051.04 319.687C1044.52 308.327 1035.14 298.872 1023.84 292.262C1012.53 285.653 999.689 282.12 986.592 282.015C973.495 281.91 960.599 285.236 949.188 291.663C964.894 309.808 973.523 333.013 973.488 357.013C973.523 381.012 964.894 404.217 949.188 422.363ZM986 732.012C976.383 732.019 966.805 730.792 957.5 728.362C974.156 715.528 987.64 699.037 996.912 680.164C1006.18 661.291 1011 640.54 1010.97 619.512V503.887C1011 486.683 1004.83 470.044 993.6 457.013H1051.64C1057.79 457.013 1063.89 458.225 1069.58 460.581C1075.26 462.936 1080.43 466.389 1084.78 470.742C1089.14 475.095 1092.59 480.262 1094.94 485.949C1097.3 491.636 1098.51 497.732 1098.51 503.887V619.512C1098.51 649.349 1086.66 677.964 1065.56 699.062C1044.46 720.16 1015.84 732.012 986 732.012ZM1061.69 422.387C1073.1 428.799 1085.99 432.112 1099.08 431.997C1112.17 431.882 1125 428.342 1136.3 421.731C1147.6 415.119 1156.97 405.665 1163.48 394.309C1170 382.953 1173.42 370.091 1173.42 357C1173.42 343.909 1170 331.047 1163.48 319.691C1156.97 308.335 1147.6 298.881 1136.3 292.269C1125 285.658 1112.17 282.118 1099.08 282.003C1085.99 281.888 1073.1 285.201 1061.69 291.613C1077.42 309.766 1086.06 332.991 1086.02 357.013C1086.02 382.013 1076.85 404.862 1061.69 422.387ZM1098.5 732.012C1088.66 732.012 1079.13 730.75 1070.03 728.387C1086.69 715.553 1100.18 699.059 1109.46 680.182C1118.73 661.304 1123.55 640.546 1123.52 619.512V503.887C1123.54 486.68 1117.37 470.04 1106.13 457.013H1164.11C1170.27 457.011 1176.37 458.222 1182.05 460.577C1187.74 462.932 1192.91 466.385 1197.27 470.737C1201.62 475.09 1205.07 480.258 1207.43 485.946C1209.79 491.634 1211 497.731 1211 503.887V619.512C1211 649.349 1199.15 677.964 1178.05 699.062C1156.95 720.16 1128.34 732.012 1098.5 732.012ZM807.875 457.013C795.443 457.013 783.52 461.951 774.729 470.742C765.939 479.533 761 491.455 761 503.887V619.512C761 649.349 772.853 677.964 793.95 699.062C815.048 720.16 843.663 732.012 873.5 732.012C903.337 732.012 931.952 720.16 953.05 699.062C974.147 677.964 986 649.349 986 619.512V503.887C986 491.455 981.061 479.533 972.271 470.742C963.48 461.951 951.557 457.013 939.125 457.013H807.875ZM873.5 432.013C893.391 432.013 912.468 424.111 926.533 410.046C940.598 395.98 948.5 376.904 948.5 357.013C948.5 337.121 940.598 318.045 926.533 303.979C912.468 289.914 893.391 282.013 873.5 282.013C853.609 282.013 834.532 289.914 820.467 303.979C806.402 318.045 798.5 337.121 798.5 357.013C798.5 376.904 806.402 395.98 820.467 410.046C834.532 424.111 853.609 432.013 873.5 432.013Z" fill="url(#paint0_linear_2002_177)"/>
<path d="M799.544 197V151.88H817.208C822.328 151.88 826.68 152.776 830.264 154.568C833.891 156.317 836.643 158.877 838.52 162.248C840.44 165.576 841.4 169.629 841.4 174.408C841.4 179.187 840.44 183.261 838.52 186.632C836.643 190.003 833.891 192.584 830.264 194.376C826.68 196.125 822.328 197 817.208 197H799.544ZM809.464 188.872H816.632C821.453 188.872 825.059 187.677 827.448 185.288C829.837 182.899 831.032 179.272 831.032 174.408C831.032 169.544 829.816 165.939 827.384 163.592C824.995 161.203 821.411 160.008 816.632 160.008H809.464V188.872ZM858.899 197.704C856.595 197.704 854.525 197.256 852.691 196.36C850.856 195.464 849.427 194.248 848.403 192.712C847.379 191.176 846.867 189.448 846.867 187.528C846.867 185.224 847.464 183.411 848.659 182.088C849.853 180.723 851.795 179.763 854.483 179.208C857.171 178.611 860.733 178.312 865.171 178.312H868.563V183.304H865.235C863.571 183.304 862.163 183.368 861.01 183.496C859.901 183.624 858.984 183.859 858.259 184.2C857.533 184.499 857 184.883 856.659 185.352C856.36 185.821 856.211 186.419 856.211 187.144C856.211 188.339 856.616 189.32 857.427 190.088C858.28 190.856 859.496 191.24 861.075 191.24C862.312 191.24 863.4 190.963 864.339 190.408C865.32 189.811 866.088 189.021 866.643 188.04C867.197 187.016 867.475 185.864 867.475 184.584V177.224C867.475 175.347 867.048 174.024 866.195 173.256C865.341 172.445 863.891 172.04 861.843 172.04C860.136 172.04 858.323 172.317 856.403 172.872C854.525 173.384 852.648 174.173 850.771 175.24L848.147 168.776C849.256 168.008 850.6 167.347 852.179 166.792C853.8 166.195 855.485 165.747 857.235 165.448C858.984 165.107 860.648 164.936 862.227 164.936C865.512 164.936 868.2 165.427 870.291 166.408C872.424 167.347 874.024 168.819 875.091 170.824C876.157 172.787 876.691 175.325 876.691 178.44V197H867.667V190.664H868.115C867.859 192.115 867.304 193.373 866.451 194.44C865.64 195.464 864.595 196.275 863.315 196.872C862.035 197.427 860.563 197.704 858.899 197.704ZM895.932 197.704C894.097 197.704 892.326 197.555 890.62 197.256C888.913 196.957 887.356 196.552 885.948 196.04C884.54 195.528 883.302 194.888 882.236 194.12L884.54 187.848C885.606 188.488 886.758 189.064 887.996 189.576C889.276 190.045 890.598 190.408 891.964 190.664C893.329 190.92 894.673 191.048 895.996 191.048C897.83 191.048 899.153 190.771 899.964 190.216C900.817 189.619 901.244 188.851 901.244 187.912C901.244 187.059 900.966 186.419 900.412 185.992C899.857 185.565 899.046 185.267 897.98 185.096L891.26 183.88C888.614 183.411 886.566 182.451 885.116 181C883.708 179.507 883.004 177.608 883.004 175.304C883.004 173.171 883.601 171.336 884.796 169.8C885.99 168.221 887.633 167.027 889.724 166.216C891.857 165.363 894.268 164.936 896.956 164.936C898.492 164.936 899.985 165.064 901.436 165.32C902.886 165.576 904.252 165.96 905.532 166.472C906.854 166.984 908.028 167.667 909.052 168.52L906.62 174.728C905.809 174.088 904.849 173.533 903.74 173.064C902.63 172.595 901.5 172.232 900.348 171.976C899.196 171.677 898.108 171.528 897.083 171.528C895.164 171.528 893.777 171.848 892.924 172.488C892.07 173.085 891.644 173.853 891.644 174.792C891.644 175.517 891.878 176.136 892.348 176.648C892.86 177.117 893.628 177.437 894.652 177.608L901.372 178.824C904.145 179.293 906.257 180.232 907.708 181.64C909.158 183.005 909.884 184.883 909.884 187.272C909.884 189.448 909.308 191.325 908.156 192.904C907.004 194.44 905.382 195.635 903.292 196.488C901.201 197.299 898.748 197.704 895.932 197.704ZM915.4 197V151.88H925.064V171.464H924.168C925.149 169.373 926.6 167.773 928.52 166.664C930.482 165.512 932.701 164.936 935.176 164.936C937.693 164.936 939.762 165.427 941.384 166.408C943.005 167.347 944.221 168.797 945.032 170.76C945.842 172.68 946.248 175.133 946.248 178.12V197H936.584V178.568C936.584 177.117 936.392 175.944 936.008 175.048C935.666 174.109 935.133 173.448 934.408 173.064C933.725 172.637 932.85 172.424 931.784 172.424C930.418 172.424 929.224 172.723 928.2 173.32C927.218 173.875 926.45 174.685 925.896 175.752C925.341 176.819 925.064 178.056 925.064 179.464V197H915.4ZM972.854 197.704C970.337 197.704 968.097 197.085 966.134 195.848C964.214 194.568 962.934 192.883 962.294 190.792H962.934V197H953.462V151.88H963.126V171.4H962.358C963.041 169.48 964.342 167.923 966.262 166.728C968.182 165.533 970.379 164.936 972.854 164.936C975.627 164.936 978.038 165.597 980.086 166.92C982.134 168.243 983.734 170.12 984.886 172.552C986.038 174.984 986.614 177.885 986.614 181.256C986.614 184.627 986.038 187.549 984.886 190.024C983.734 192.499 982.113 194.397 980.022 195.72C977.974 197.043 975.585 197.704 972.854 197.704ZM969.974 190.472C972.022 190.472 973.686 189.725 974.966 188.232C976.246 186.696 976.886 184.371 976.886 181.256C976.886 178.141 976.246 175.859 974.966 174.408C973.686 172.915 972.022 172.168 969.974 172.168C967.883 172.168 966.198 172.915 964.918 174.408C963.638 175.859 962.998 178.141 962.998 181.256C962.998 184.371 963.638 186.696 964.918 188.232C966.198 189.725 967.883 190.472 969.974 190.472ZM1007.63 197.704C1004.26 197.704 1001.31 197.043 998.797 195.72C996.322 194.397 994.402 192.499 993.036 190.024C991.671 187.549 990.989 184.627 990.989 181.256C990.989 177.885 991.671 174.984 993.036 172.552C994.402 170.12 996.322 168.243 998.797 166.92C1001.31 165.597 1004.26 164.936 1007.63 164.936C1011 164.936 1013.92 165.597 1016.4 166.92C1018.91 168.243 1020.86 170.141 1022.22 172.616C1023.63 175.048 1024.33 177.928 1024.33 181.256C1024.33 184.627 1023.63 187.549 1022.22 190.024C1020.86 192.499 1018.91 194.397 1016.4 195.72C1013.92 197.043 1011 197.704 1007.63 197.704ZM1007.63 190.472C1009.72 190.472 1011.4 189.725 1012.68 188.232C1013.96 186.696 1014.6 184.371 1014.6 181.256C1014.6 178.141 1013.96 175.859 1012.68 174.408C1011.4 172.915 1009.72 172.168 1007.63 172.168C1005.58 172.168 1003.92 172.915 1002.64 174.408C1001.36 175.859 1000.72 178.141 1000.72 181.256C1000.72 184.371 1001.36 186.696 1002.64 188.232C1003.92 189.725 1005.58 190.472 1007.63 190.472ZM1040.84 197.704C1038.53 197.704 1036.46 197.256 1034.63 196.36C1032.79 195.464 1031.36 194.248 1030.34 192.712C1029.32 191.176 1028.8 189.448 1028.8 187.528C1028.8 185.224 1029.4 183.411 1030.6 182.088C1031.79 180.723 1033.73 179.763 1036.42 179.208C1039.11 178.611 1042.67 178.312 1047.11 178.312H1050.5V183.304H1047.17C1045.51 183.304 1044.1 183.368 1042.95 183.496C1041.84 183.624 1040.92 183.859 1040.2 184.2C1039.47 184.499 1038.94 184.883 1038.6 185.352C1038.3 185.821 1038.15 186.419 1038.15 187.144C1038.15 188.339 1038.55 189.32 1039.36 190.088C1040.22 190.856 1041.43 191.24 1043.01 191.24C1044.25 191.24 1045.34 190.963 1046.28 190.408C1047.26 189.811 1048.03 189.021 1048.58 188.04C1049.13 187.016 1049.41 185.864 1049.41 184.584V177.224C1049.41 175.347 1048.99 174.024 1048.13 173.256C1047.28 172.445 1045.83 172.04 1043.78 172.04C1042.07 172.04 1040.26 172.317 1038.34 172.872C1036.46 173.384 1034.59 174.173 1032.71 175.24L1030.08 168.776C1031.19 168.008 1032.54 167.347 1034.12 166.792C1035.74 166.195 1037.42 165.747 1039.17 165.448C1040.92 165.107 1042.59 164.936 1044.16 164.936C1047.45 164.936 1050.14 165.427 1052.23 166.408C1054.36 167.347 1055.96 168.819 1057.03 170.824C1058.09 172.787 1058.63 175.325 1058.63 178.44V197H1049.6V190.664H1050.05C1049.8 192.115 1049.24 193.373 1048.39 194.44C1047.58 195.464 1046.53 196.275 1045.25 196.872C1043.97 197.427 1042.5 197.704 1040.84 197.704ZM1065.84 197V165.576H1075.31V173.256H1074.67C1075.18 170.696 1076.29 168.733 1078 167.368C1079.75 165.96 1082.05 165.149 1084.91 164.936L1087.73 164.744L1088.3 172.872L1082.86 173.448C1080.43 173.661 1078.62 174.365 1077.42 175.56C1076.27 176.755 1075.69 178.483 1075.69 180.744V197H1065.84ZM1103.87 197.704C1101.14 197.704 1098.73 197.043 1096.64 195.72C1094.59 194.397 1092.99 192.499 1091.84 190.024C1090.69 187.549 1090.11 184.627 1090.11 181.256C1090.11 177.885 1090.69 174.984 1091.84 172.552C1092.99 170.12 1094.59 168.243 1096.64 166.92C1098.73 165.597 1101.14 164.936 1103.87 164.936C1106.35 164.936 1108.52 165.533 1110.4 166.728C1112.32 167.923 1113.62 169.48 1114.31 171.4H1113.6V151.88H1123.27V197H1113.79V190.792H1114.37C1113.77 192.883 1112.49 194.568 1110.53 195.848C1108.61 197.085 1106.39 197.704 1103.87 197.704ZM1106.75 190.472C1108.84 190.472 1110.53 189.725 1111.81 188.232C1113.09 186.696 1113.73 184.371 1113.73 181.256C1113.73 178.141 1113.09 175.859 1111.81 174.408C1110.53 172.915 1108.84 172.168 1106.75 172.168C1104.71 172.168 1103.04 172.915 1101.76 174.408C1100.48 175.859 1099.84 178.141 1099.84 181.256C1099.84 184.371 1100.48 186.696 1101.76 188.232C1103.04 189.725 1104.71 190.472 1106.75 190.472Z" fill="#196AC9"/>
</g>
<path d="M202.544 863V817.88H223.152C226.523 817.88 229.381 818.456 231.728 819.608C234.075 820.76 235.845 822.403 237.04 824.536C238.277 826.669 238.896 829.251 238.896 832.28C238.896 835.309 238.277 837.912 237.04 840.088C235.845 842.221 234.075 843.864 231.728 845.016C229.381 846.168 226.523 846.744 223.152 846.744H212.464V863H202.544ZM212.464 839.064H221.488C224.048 839.064 225.989 838.488 227.312 837.336C228.677 836.184 229.36 834.499 229.36 832.28C229.36 830.061 228.677 828.397 227.312 827.288C225.989 826.179 224.048 825.624 221.488 825.624H212.464V839.064ZM258.845 863.704C255.133 863.704 251.933 863.043 249.245 861.72C246.599 860.355 244.551 858.456 243.101 856.024C241.693 853.549 240.989 850.648 240.989 847.32C240.989 844.077 241.671 841.24 243.036 838.808C244.402 836.333 246.301 834.413 248.733 833.048C251.207 831.64 254.002 830.936 257.117 830.936C260.189 830.936 262.834 831.597 265.053 832.92C267.271 834.2 268.978 836.035 270.173 838.424C271.41 840.813 272.029 843.651 272.029 846.936V849.368H248.925V844.376H265.053L264.029 845.272C264.029 842.669 263.453 840.707 262.301 839.384C261.191 838.019 259.591 837.336 257.501 837.336C255.922 837.336 254.578 837.699 253.469 838.424C252.359 839.149 251.506 840.195 250.909 841.56C250.311 842.925 250.013 844.568 250.013 846.488V847C250.013 849.176 250.333 850.968 250.973 852.376C251.655 853.741 252.658 854.765 253.981 855.448C255.346 856.131 257.031 856.472 259.037 856.472C260.743 856.472 262.471 856.216 264.221 855.704C265.97 855.192 267.549 854.403 268.957 853.336L271.517 859.8C269.938 860.995 267.997 861.955 265.693 862.68C263.431 863.363 261.149 863.704 258.845 863.704ZM292.753 863.704C289.383 863.704 286.439 863.043 283.922 861.72C281.447 860.397 279.527 858.499 278.161 856.024C276.796 853.549 276.114 850.627 276.114 847.256C276.114 843.885 276.796 840.984 278.161 838.552C279.527 836.12 281.447 834.243 283.922 832.92C286.439 831.597 289.383 830.936 292.753 830.936C296.124 830.936 299.047 831.597 301.522 832.92C304.039 834.243 305.98 836.141 307.346 838.616C308.754 841.048 309.458 843.928 309.458 847.256C309.458 850.627 308.754 853.549 307.346 856.024C305.98 858.499 304.039 860.397 301.522 861.72C299.047 863.043 296.124 863.704 292.753 863.704ZM292.753 856.472C294.844 856.472 296.53 855.725 297.81 854.232C299.09 852.696 299.73 850.371 299.73 847.256C299.73 844.141 299.09 841.859 297.81 840.408C296.53 838.915 294.844 838.168 292.753 838.168C290.706 838.168 289.042 838.915 287.762 840.408C286.482 841.859 285.842 844.141 285.842 847.256C285.842 850.371 286.482 852.696 287.762 854.232C289.042 855.725 290.706 856.472 292.753 856.472ZM315.337 874.52V831.576H324.809V837.784H324.169C324.809 835.736 326.089 834.093 328.009 832.856C329.972 831.576 332.212 830.936 334.729 830.936C337.46 830.936 339.849 831.597 341.897 832.92C343.988 834.243 345.609 836.12 346.761 838.552C347.913 840.984 348.489 843.885 348.489 847.256C348.489 850.627 347.913 853.549 346.761 856.024C345.609 858.499 344.009 860.397 341.961 861.72C339.913 863.043 337.502 863.704 334.729 863.704C332.254 863.704 330.057 863.107 328.137 861.912C326.217 860.675 324.916 859.075 324.233 857.112H325.001V874.52H315.337ZM331.849 856.472C333.897 856.472 335.561 855.725 336.841 854.232C338.121 852.696 338.761 850.371 338.761 847.256C338.761 844.141 338.121 841.859 336.841 840.408C335.561 838.915 333.897 838.168 331.849 838.168C329.758 838.168 328.073 838.915 326.793 840.408C325.513 841.859 324.873 844.141 324.873 847.256C324.873 850.371 325.513 852.696 326.793 854.232C328.073 855.725 329.758 856.472 331.849 856.472ZM366.112 863.704C362.058 863.704 359.093 862.659 357.216 860.568C355.338 858.435 354.4 855.277 354.4 851.096V817.88H364.064V850.712C364.064 851.779 364.234 852.717 364.576 853.528C364.917 854.296 365.408 854.872 366.048 855.256C366.73 855.64 367.584 855.832 368.608 855.832C369.034 855.832 369.482 855.811 369.952 855.768C370.421 855.725 370.869 855.64 371.296 855.512L371.168 863C370.357 863.213 369.525 863.384 368.672 863.512C367.861 863.64 367.008 863.704 366.112 863.704ZM391.72 863.704C388.008 863.704 384.808 863.043 382.12 861.72C379.474 860.355 377.426 858.456 375.976 856.024C374.568 853.549 373.864 850.648 373.864 847.32C373.864 844.077 374.546 841.24 375.911 838.808C377.277 836.333 379.176 834.413 381.608 833.048C384.082 831.64 386.877 830.936 389.992 830.936C393.064 830.936 395.709 831.597 397.928 832.92C400.146 834.2 401.853 836.035 403.048 838.424C404.285 840.813 404.904 843.651 404.904 846.936V849.368H381.8V844.376H397.928L396.904 845.272C396.904 842.669 396.328 840.707 395.176 839.384C394.066 838.019 392.466 837.336 390.376 837.336C388.797 837.336 387.453 837.699 386.344 838.424C385.234 839.149 384.381 840.195 383.784 841.56C383.186 842.925 382.888 844.568 382.888 846.488V847C382.888 849.176 383.208 850.968 383.848 852.376C384.53 853.741 385.533 854.765 386.856 855.448C388.221 856.131 389.906 856.472 391.912 856.472C393.618 856.472 395.346 856.216 397.096 855.704C398.845 855.192 400.424 854.403 401.832 853.336L404.392 859.8C402.813 860.995 400.872 861.955 398.568 862.68C396.306 863.363 394.024 863.704 391.72 863.704ZM423.985 863L444.721 817.88H452.721L473.457 863H463.473L458.097 850.456L462.065 853.208H435.377L439.345 850.456L434.033 863H423.985ZM448.625 828.44L440.433 847.96L438.705 845.464H458.737L457.009 847.96L448.753 828.44H448.625ZM476.525 863V831.576H485.997V837.464H485.293C486.274 835.373 487.725 833.773 489.645 832.664C491.607 831.512 493.826 830.936 496.301 830.936C498.818 830.936 500.887 831.427 502.509 832.408C504.13 833.347 505.346 834.797 506.157 836.76C506.967 838.68 507.373 841.133 507.373 844.12V863H497.709V844.568C497.709 843.117 497.517 841.944 497.133 841.048C496.791 840.109 496.258 839.448 495.533 839.064C494.85 838.637 493.975 838.424 492.909 838.424C491.543 838.424 490.349 838.723 489.325 839.32C488.343 839.875 487.575 840.685 487.021 841.752C486.466 842.819 486.189 844.056 486.189 845.464V863H476.525ZM525.211 863.704C522.907 863.704 520.838 863.256 519.003 862.36C517.168 861.464 515.739 860.248 514.715 858.712C513.691 857.176 513.179 855.448 513.179 853.528C513.179 851.224 513.776 849.411 514.971 848.088C516.166 846.723 518.107 845.763 520.795 845.208C523.483 844.611 527.046 844.312 531.483 844.312H534.875V849.304H531.547C529.883 849.304 528.475 849.368 527.323 849.496C526.214 849.624 525.296 849.859 524.571 850.2C523.846 850.499 523.312 850.883 522.971 851.352C522.672 851.821 522.523 852.419 522.523 853.144C522.523 854.339 522.928 855.32 523.739 856.088C524.592 856.856 525.808 857.24 527.387 857.24C528.624 857.24 529.712 856.963 530.651 856.408C531.632 855.811 532.4 855.021 532.955 854.04C533.51 853.016 533.787 851.864 533.787 850.584V843.224C533.787 841.347 533.36 840.024 532.507 839.256C531.654 838.445 530.203 838.04 528.155 838.04C526.448 838.04 524.635 838.317 522.715 838.872C520.838 839.384 518.96 840.173 517.083 841.24L514.459 834.776C515.568 834.008 516.912 833.347 518.491 832.792C520.112 832.195 521.798 831.747 523.547 831.448C525.296 831.107 526.96 830.936 528.539 830.936C531.824 830.936 534.512 831.427 536.603 832.408C538.736 833.347 540.336 834.819 541.403 836.824C542.47 838.787 543.003 841.325 543.003 844.44V863H533.979V856.664H534.427C534.171 858.115 533.616 859.373 532.763 860.44C531.952 861.464 530.907 862.275 529.627 862.872C528.347 863.427 526.875 863.704 525.211 863.704ZM561.924 863.704C557.871 863.704 554.905 862.659 553.028 860.568C551.151 858.435 550.212 855.277 550.212 851.096V817.88H559.876V850.712C559.876 851.779 560.047 852.717 560.388 853.528C560.729 854.296 561.22 854.872 561.86 855.256C562.543 855.64 563.396 855.832 564.42 855.832C564.847 855.832 565.295 855.811 565.764 855.768C566.233 855.725 566.681 855.64 567.108 855.512L566.98 863C566.169 863.213 565.337 863.384 564.484 863.512C563.673 863.64 562.82 863.704 561.924 863.704ZM573.082 874.52L579.994 859.352V863.32L566.169 831.576H576.345L585.242 854.104H583.194L592.346 831.576H601.946L582.938 874.52H573.082ZM621.261 863.704C616.781 863.704 613.453 862.616 611.277 860.44C609.101 858.264 608.013 855.064 608.013 850.84V838.808H602.061V831.576H608.013V822.36H617.677V831.576H626.957V838.808H617.677V850.456C617.677 852.248 618.082 853.592 618.893 854.488C619.746 855.384 621.09 855.832 622.925 855.832C623.48 855.832 624.056 855.768 624.653 855.64C625.293 855.512 625.976 855.341 626.701 855.128L628.109 862.168C627.213 862.637 626.146 863 624.909 863.256C623.672 863.555 622.456 863.704 621.261 863.704ZM631.328 825.496V816.472H641.76V825.496H631.328ZM631.712 863V831.576H641.376V863H631.712ZM664.133 863.704C660.72 863.704 657.733 863.043 655.173 861.72C652.656 860.355 650.714 858.435 649.349 855.96C647.984 853.485 647.301 850.563 647.301 847.192C647.301 843.821 647.984 840.92 649.349 838.488C650.714 836.056 652.656 834.2 655.173 832.92C657.733 831.597 660.72 830.936 664.133 830.936C666.181 830.936 668.208 831.235 670.213 831.832C672.261 832.429 673.925 833.283 675.205 834.392L672.517 841.048C671.493 840.195 670.298 839.533 668.933 839.064C667.568 838.552 666.288 838.296 665.093 838.296C662.576 838.296 660.613 839.085 659.205 840.664C657.84 842.2 657.157 844.397 657.157 847.256C657.157 850.072 657.84 852.291 659.205 853.912C660.613 855.491 662.576 856.28 665.093 856.28C666.288 856.28 667.568 856.045 668.933 855.576C670.298 855.107 671.493 854.424 672.517 853.528L675.205 860.184C673.925 861.251 672.261 862.104 670.213 862.744C668.165 863.384 666.138 863.704 664.133 863.704ZM691.432 863.704C689.597 863.704 687.826 863.555 686.12 863.256C684.413 862.957 682.856 862.552 681.448 862.04C680.04 861.528 678.802 860.888 677.736 860.12L680.04 853.848C681.106 854.488 682.258 855.064 683.496 855.576C684.776 856.045 686.098 856.408 687.464 856.664C688.829 856.92 690.173 857.048 691.496 857.048C693.33 857.048 694.653 856.771 695.464 856.216C696.317 855.619 696.744 854.851 696.744 853.912C696.744 853.059 696.466 852.419 695.912 851.992C695.357 851.565 694.546 851.267 693.48 851.096L686.76 849.88C684.114 849.411 682.066 848.451 680.616 847C679.208 845.507 678.504 843.608 678.504 841.304C678.504 839.171 679.101 837.336 680.296 835.8C681.49 834.221 683.133 833.027 685.224 832.216C687.357 831.363 689.768 830.936 692.456 830.936C693.992 830.936 695.485 831.064 696.936 831.32C698.386 831.576 699.752 831.96 701.032 832.472C702.354 832.984 703.528 833.667 704.552 834.52L702.12 840.728C701.309 840.088 700.349 839.533 699.24 839.064C698.13 838.595 697 838.232 695.848 837.976C694.696 837.677 693.608 837.528 692.583 837.528C690.664 837.528 689.277 837.848 688.424 838.488C687.57 839.085 687.144 839.853 687.144 840.792C687.144 841.517 687.378 842.136 687.848 842.648C688.36 843.117 689.128 843.437 690.152 843.608L696.872 844.824C699.645 845.293 701.757 846.232 703.208 847.64C704.658 849.005 705.384 850.883 705.384 853.272C705.384 855.448 704.808 857.325 703.656 858.904C702.504 860.44 700.882 861.635 698.792 862.488C696.701 863.299 694.248 863.704 691.432 863.704ZM729.16 849.624V842.008H748.936V849.624H729.16ZM775.544 863V817.88H806.456V825.624H785.016V836.184H805.048V843.992H785.016V855.256H806.456V863H775.544ZM825.307 863.704C823.472 863.704 821.701 863.555 819.995 863.256C818.288 862.957 816.731 862.552 815.323 862.04C813.915 861.528 812.677 860.888 811.611 860.12L813.915 853.848C814.981 854.488 816.133 855.064 817.371 855.576C818.651 856.045 819.973 856.408 821.339 856.664C822.704 856.92 824.048 857.048 825.371 857.048C827.205 857.048 828.528 856.771 829.339 856.216C830.192 855.619 830.619 854.851 830.619 853.912C830.619 853.059 830.341 852.419 829.787 851.992C829.232 851.565 828.421 851.267 827.355 851.096L820.635 849.88C817.989 849.411 815.941 848.451 814.491 847C813.083 845.507 812.379 843.608 812.379 841.304C812.379 839.171 812.976 837.336 814.171 835.8C815.365 834.221 817.008 833.027 819.099 832.216C821.232 831.363 823.643 830.936 826.331 830.936C827.867 830.936 829.36 831.064 830.811 831.32C832.261 831.576 833.627 831.96 834.907 832.472C836.229 832.984 837.403 833.667 838.427 834.52L835.995 840.728C835.184 840.088 834.224 839.533 833.115 839.064C832.005 838.595 830.875 838.232 829.723 837.976C828.571 837.677 827.483 837.528 826.458 837.528C824.539 837.528 823.152 837.848 822.299 838.488C821.445 839.085 821.019 839.853 821.019 840.792C821.019 841.517 821.253 842.136 821.723 842.648C822.235 843.117 823.003 843.437 824.027 843.608L830.747 844.824C833.52 845.293 835.632 846.232 837.083 847.64C838.533 849.005 839.259 850.883 839.259 853.272C839.259 855.448 838.683 857.325 837.531 858.904C836.379 860.44 834.757 861.635 832.667 862.488C830.576 863.299 828.123 863.704 825.307 863.704ZM859.886 863.704C855.406 863.704 852.078 862.616 849.902 860.44C847.726 858.264 846.638 855.064 846.638 850.84V838.808H840.686V831.576H846.638V822.36H856.302V831.576H865.582V838.808H856.302V850.456C856.302 852.248 856.707 853.592 857.518 854.488C858.371 855.384 859.715 855.832 861.55 855.832C862.105 855.832 862.681 855.768 863.278 855.64C863.918 855.512 864.601 855.341 865.326 855.128L866.734 862.168C865.838 862.637 864.771 863 863.534 863.256C862.297 863.555 861.081 863.704 859.886 863.704ZM870.337 863V831.576H879.809V839.256H879.169C879.681 836.696 880.79 834.733 882.497 833.368C884.246 831.96 886.55 831.149 889.409 830.936L892.225 830.744L892.801 838.872L887.361 839.448C884.929 839.661 883.116 840.365 881.921 841.56C880.769 842.755 880.193 844.483 880.193 846.744V863H870.337ZM907.024 863.704C904.72 863.704 902.65 863.256 900.816 862.36C898.981 861.464 897.552 860.248 896.528 858.712C895.504 857.176 894.992 855.448 894.992 853.528C894.992 851.224 895.589 849.411 896.784 848.088C897.978 846.723 899.92 845.763 902.608 845.208C905.296 844.611 908.858 844.312 913.296 844.312H916.688V849.304H913.36C911.696 849.304 910.288 849.368 909.135 849.496C908.026 849.624 907.109 849.859 906.384 850.2C905.658 850.499 905.125 850.883 904.784 851.352C904.485 851.821 904.336 852.419 904.336 853.144C904.336 854.339 904.741 855.32 905.552 856.088C906.405 856.856 907.621 857.24 909.2 857.24C910.437 857.24 911.525 856.963 912.464 856.408C913.445 855.811 914.213 855.021 914.768 854.04C915.322 853.016 915.6 851.864 915.6 850.584V843.224C915.6 841.347 915.173 840.024 914.32 839.256C913.466 838.445 912.016 838.04 909.968 838.04C908.261 838.04 906.448 838.317 904.528 838.872C902.65 839.384 900.773 840.173 898.896 841.24L896.272 834.776C897.381 834.008 898.725 833.347 900.304 832.792C901.925 832.195 903.61 831.747 905.36 831.448C907.109 831.107 908.773 830.936 910.352 830.936C913.637 830.936 916.325 831.427 918.416 832.408C920.549 833.347 922.149 834.819 923.216 836.824C924.282 838.787 924.816 841.325 924.816 844.44V863H915.792V856.664H916.24C915.984 858.115 915.429 859.373 914.576 860.44C913.765 861.464 912.72 862.275 911.44 862.872C910.16 863.427 908.688 863.704 907.024 863.704ZM947.449 863.704C942.969 863.704 939.641 862.616 937.465 860.44C935.289 858.264 934.201 855.064 934.201 850.84V838.808H928.248V831.576H934.201V822.36H943.865V831.576H953.145V838.808H943.865V850.456C943.865 852.248 944.27 853.592 945.081 854.488C945.934 855.384 947.278 855.832 949.113 855.832C949.667 855.832 950.243 855.768 950.841 855.64C951.481 855.512 952.163 855.341 952.889 855.128L954.297 862.168C953.401 862.637 952.334 863 951.097 863.256C949.859 863.555 948.643 863.704 947.449 863.704ZM973.907 863.704C970.195 863.704 966.995 863.043 964.307 861.72C961.662 860.355 959.614 858.456 958.163 856.024C956.755 853.549 956.051 850.648 956.051 847.32C956.051 844.077 956.734 841.24 958.099 838.808C959.464 836.333 961.363 834.413 963.795 833.048C966.27 831.64 969.064 830.936 972.179 830.936C975.251 830.936 977.896 831.597 980.115 832.92C982.334 834.2 984.04 836.035 985.235 838.424C986.472 840.813 987.091 843.651 987.091 846.936V849.368H963.987V844.376H980.115L979.091 845.272C979.091 842.669 978.515 840.707 977.363 839.384C976.254 838.019 974.654 837.336 972.563 837.336C970.984 837.336 969.64 837.699 968.531 838.424C967.422 839.149 966.568 840.195 965.971 841.56C965.374 842.925 965.075 844.568 965.075 846.488V847C965.075 849.176 965.395 850.968 966.035 852.376C966.718 853.741 967.72 854.765 969.043 855.448C970.408 856.131 972.094 856.472 974.099 856.472C975.806 856.472 977.534 856.216 979.283 855.704C981.032 855.192 982.611 854.403 984.019 853.336L986.579 859.8C985 860.995 983.059 861.955 980.755 862.68C978.494 863.363 976.211 863.704 973.907 863.704ZM969.043 827.48L975.635 814.36H984.851L975.443 827.48H969.043ZM1007.82 875.224C1004.83 875.224 1002.01 874.904 999.368 874.264C996.723 873.624 994.419 872.621 992.456 871.256L995.08 864.664C996.232 865.347 997.469 865.944 998.792 866.456C1000.16 866.968 1001.54 867.352 1002.95 867.608C1004.36 867.864 1005.7 867.992 1006.98 867.992C1009.71 867.992 1011.76 867.373 1013.13 866.136C1014.49 864.899 1015.18 863 1015.18 860.44V855.576H1015.75C1015.11 857.539 1013.79 859.139 1011.78 860.376C1009.78 861.613 1007.56 862.232 1005.13 862.232C1002.31 862.232 999.859 861.592 997.768 860.312C995.677 858.989 994.056 857.155 992.904 854.808C991.752 852.419 991.176 849.667 991.176 846.552C991.176 843.395 991.752 840.664 992.904 838.36C994.056 836.013 995.677 834.2 997.768 832.92C999.859 831.597 1002.31 830.936 1005.13 830.936C1007.65 830.936 1009.86 831.555 1011.78 832.792C1013.75 833.987 1015.05 835.565 1015.69 837.528H1015.18V831.576H1024.58V859.352C1024.58 862.851 1023.94 865.773 1022.66 868.12C1021.38 870.509 1019.49 872.28 1016.97 873.432C1014.49 874.627 1011.44 875.224 1007.82 875.224ZM1008.01 855C1010.14 855 1011.85 854.253 1013.13 852.76C1014.45 851.267 1015.11 849.197 1015.11 846.552C1015.11 843.907 1014.45 841.859 1013.13 840.408C1011.85 838.915 1010.14 838.168 1008.01 838.168C1005.83 838.168 1004.1 838.915 1002.82 840.408C1001.54 841.859 1000.9 843.907 1000.9 846.552C1000.9 849.197 1001.54 851.267 1002.82 852.76C1004.1 854.253 1005.83 855 1008.01 855ZM1031.7 825.496V816.472H1042.14V825.496H1031.7ZM1032.09 863V831.576H1041.75V863H1032.09ZM1059.84 863.704C1057.53 863.704 1055.46 863.256 1053.63 862.36C1051.79 861.464 1050.36 860.248 1049.34 858.712C1048.32 857.176 1047.8 855.448 1047.8 853.528C1047.8 851.224 1048.4 849.411 1049.6 848.088C1050.79 846.723 1052.73 845.763 1055.42 845.208C1058.11 844.611 1061.67 844.312 1066.11 844.312H1069.5V849.304H1066.17C1064.51 849.304 1063.1 849.368 1061.95 849.496C1060.84 849.624 1059.92 849.859 1059.2 850.2C1058.47 850.499 1057.94 850.883 1057.6 851.352C1057.3 851.821 1057.15 852.419 1057.15 853.144C1057.15 854.339 1057.55 855.32 1058.36 856.088C1059.22 856.856 1060.43 857.24 1062.01 857.24C1063.25 857.24 1064.34 856.963 1065.28 856.408C1066.26 855.811 1067.03 855.021 1067.58 854.04C1068.13 853.016 1068.41 851.864 1068.41 850.584V843.224C1068.41 841.347 1067.99 840.024 1067.13 839.256C1066.28 838.445 1064.83 838.04 1062.78 838.04C1061.07 838.04 1059.26 838.317 1057.34 838.872C1055.46 839.384 1053.59 840.173 1051.71 841.24L1049.08 834.776C1050.19 834.008 1051.54 833.347 1053.12 832.792C1054.74 832.195 1056.42 831.747 1058.17 831.448C1059.92 831.107 1061.59 830.936 1063.16 830.936C1066.45 830.936 1069.14 831.427 1071.23 832.408C1073.36 833.347 1074.96 834.819 1076.03 836.824C1077.09 838.787 1077.63 841.325 1077.63 844.44V863H1068.6V856.664H1069.05C1068.8 858.115 1068.24 859.373 1067.39 860.44C1066.58 861.464 1065.53 862.275 1064.25 862.872C1062.97 863.427 1061.5 863.704 1059.84 863.704ZM1088.87 872.216L1085.09 869.208C1086.12 868.227 1086.93 867.267 1087.53 866.328C1088.12 865.432 1088.55 864.515 1088.81 863.576C1089.1 862.68 1089.25 861.72 1089.25 860.696L1091.3 863H1084.26V852.76H1094.63V859.352C1094.63 860.973 1094.44 862.488 1094.05 863.896C1093.71 865.304 1093.11 866.691 1092.26 868.056C1091.45 869.421 1090.32 870.808 1088.87 872.216ZM1120.11 863V817.88H1140.71C1145.75 817.88 1149.63 819.096 1152.36 821.528C1155.09 823.96 1156.46 827.352 1156.46 831.704C1156.46 834.52 1155.84 836.952 1154.6 839C1153.37 841.048 1151.57 842.627 1149.23 843.736C1146.92 844.845 1144.09 845.4 1140.71 845.4L1141.23 844.312H1143.85C1145.64 844.312 1147.2 844.76 1148.52 845.656C1149.89 846.509 1151.06 847.832 1152.04 849.624L1159.34 863H1148.39L1140.59 848.6C1140.16 847.832 1139.67 847.235 1139.11 846.808C1138.56 846.339 1137.92 846.019 1137.19 845.848C1136.51 845.635 1135.74 845.528 1134.89 845.528H1130.03V863H1120.11ZM1130.03 838.36H1138.92C1141.57 838.36 1143.55 837.827 1144.87 836.76C1146.24 835.693 1146.92 834.093 1146.92 831.96C1146.92 829.869 1146.24 828.291 1144.87 827.224C1143.55 826.157 1141.57 825.624 1138.92 825.624H1130.03V838.36ZM1179.28 863.704C1175.57 863.704 1172.37 863.043 1169.68 861.72C1167.04 860.355 1164.99 858.456 1163.54 856.024C1162.13 853.549 1161.43 850.648 1161.43 847.32C1161.43 844.077 1162.11 841.24 1163.47 838.808C1164.84 836.333 1166.74 834.413 1169.17 833.048C1171.64 831.64 1174.44 830.936 1177.55 830.936C1180.63 830.936 1183.27 831.597 1185.49 832.92C1187.71 834.2 1189.42 836.035 1190.61 838.424C1191.85 840.813 1192.47 843.651 1192.47 846.936V849.368H1169.36V844.376H1185.49L1184.47 845.272C1184.47 842.669 1183.89 840.707 1182.74 839.384C1181.63 838.019 1180.03 837.336 1177.94 837.336C1176.36 837.336 1175.02 837.699 1173.91 838.424C1172.8 839.149 1171.94 840.195 1171.35 841.56C1170.75 842.925 1170.45 844.568 1170.45 846.488V847C1170.45 849.176 1170.77 850.968 1171.41 852.376C1172.09 853.741 1173.1 854.765 1174.42 855.448C1175.78 856.131 1177.47 856.472 1179.47 856.472C1181.18 856.472 1182.91 856.216 1184.66 855.704C1186.41 855.192 1187.99 854.403 1189.39 853.336L1191.95 859.8C1190.38 860.995 1188.43 861.955 1186.13 862.68C1183.87 863.363 1181.59 863.704 1179.28 863.704ZM1213.32 863.704C1208.84 863.704 1205.52 862.616 1203.34 860.44C1201.16 858.264 1200.08 855.064 1200.08 850.84V838.808H1194.12V831.576H1200.08V822.36H1209.74V831.576H1219.02V838.808H1209.74V850.456C1209.74 852.248 1210.14 853.592 1210.96 854.488C1211.81 855.384 1213.15 855.832 1214.99 855.832C1215.54 855.832 1216.12 855.768 1216.72 855.64C1217.36 855.512 1218.04 855.341 1218.76 855.128L1220.17 862.168C1219.28 862.637 1218.21 863 1216.97 863.256C1215.73 863.555 1214.52 863.704 1213.32 863.704ZM1239.78 863.704C1236.07 863.704 1232.87 863.043 1230.18 861.72C1227.54 860.355 1225.49 858.456 1224.04 856.024C1222.63 853.549 1221.93 850.648 1221.93 847.32C1221.93 844.077 1222.61 841.24 1223.97 838.808C1225.34 836.333 1227.24 834.413 1229.67 833.048C1232.14 831.64 1234.94 830.936 1238.05 830.936C1241.13 830.936 1243.77 831.597 1245.99 832.92C1248.21 834.2 1249.92 836.035 1251.11 838.424C1252.35 840.813 1252.97 843.651 1252.97 846.936V849.368H1229.86V844.376H1245.99L1244.97 845.272C1244.97 842.669 1244.39 840.707 1243.24 839.384C1242.13 838.019 1240.53 837.336 1238.44 837.336C1236.86 837.336 1235.52 837.699 1234.41 838.424C1233.3 839.149 1232.44 840.195 1231.85 841.56C1231.25 842.925 1230.95 844.568 1230.95 846.488V847C1230.95 849.176 1231.27 850.968 1231.91 852.376C1232.59 853.741 1233.6 854.765 1234.92 855.448C1236.28 856.131 1237.97 856.472 1239.97 856.472C1241.68 856.472 1243.41 856.216 1245.16 855.704C1246.91 855.192 1248.49 854.403 1249.89 853.336L1252.45 859.8C1250.88 860.995 1248.93 861.955 1246.63 862.68C1244.37 863.363 1242.09 863.704 1239.78 863.704ZM1258.59 863V831.576H1268.06V837.464H1267.36C1268.34 835.373 1269.79 833.773 1271.71 832.664C1273.67 831.512 1275.89 830.936 1278.36 830.936C1280.88 830.936 1282.95 831.427 1284.57 832.408C1286.19 833.347 1287.41 834.797 1288.22 836.76C1289.03 838.68 1289.44 841.133 1289.44 844.12V863H1279.77V844.568C1279.77 843.117 1279.58 841.944 1279.2 841.048C1278.85 840.109 1278.32 839.448 1277.6 839.064C1276.91 838.637 1276.04 838.424 1274.97 838.424C1273.61 838.424 1272.41 838.723 1271.39 839.32C1270.41 839.875 1269.64 840.685 1269.08 841.752C1268.53 842.819 1268.25 844.056 1268.25 845.464V863H1258.59ZM1311.95 863.704C1308.53 863.704 1305.55 863.043 1302.99 861.72C1300.47 860.355 1298.53 858.435 1297.16 855.96C1295.8 853.485 1295.11 850.563 1295.11 847.192C1295.11 843.821 1295.8 840.92 1297.16 838.488C1298.53 836.056 1300.47 834.2 1302.99 832.92C1305.55 831.597 1308.53 830.936 1311.95 830.936C1313.99 830.936 1316.02 831.235 1318.03 831.832C1320.07 832.429 1321.74 833.283 1323.02 834.392L1320.33 841.048C1319.31 840.195 1318.11 839.533 1316.75 839.064C1315.38 838.552 1314.1 838.296 1312.91 838.296C1310.39 838.296 1308.43 839.085 1307.02 840.664C1305.65 842.2 1304.97 844.397 1304.97 847.256C1304.97 850.072 1305.65 852.291 1307.02 853.912C1308.43 855.491 1310.39 856.28 1312.91 856.28C1314.1 856.28 1315.38 856.045 1316.75 855.576C1318.11 855.107 1319.31 854.424 1320.33 853.528L1323.02 860.184C1321.74 861.251 1320.07 862.104 1318.03 862.744C1315.98 863.384 1313.95 863.704 1311.95 863.704ZM1311.18 875.608C1309.9 875.608 1308.64 875.48 1307.4 875.224C1306.16 874.968 1305.1 874.627 1304.2 874.2L1305.55 870.104C1306.27 870.445 1307.02 870.723 1307.79 870.936C1308.6 871.149 1309.43 871.256 1310.28 871.256C1311.39 871.256 1312.22 871.107 1312.78 870.808C1313.33 870.552 1313.61 870.147 1313.61 869.592C1313.61 869.165 1313.42 868.845 1313.03 868.632C1312.69 868.419 1312.09 868.312 1311.24 868.312C1310.86 868.312 1310.47 868.312 1310.09 868.312C1309.75 868.355 1309.32 868.461 1308.81 868.632L1307.53 867.352L1308.36 861.72H1313.23L1312.39 866.584L1310.03 865.688C1310.54 865.517 1311.05 865.389 1311.56 865.304C1312.07 865.219 1312.54 865.176 1312.97 865.176C1314.25 865.176 1315.34 865.368 1316.23 865.752C1317.13 866.136 1317.83 866.669 1318.35 867.352C1318.86 868.035 1319.11 868.888 1319.11 869.912C1319.11 871.064 1318.77 872.067 1318.09 872.92C1317.41 873.773 1316.47 874.435 1315.27 874.904C1314.12 875.373 1312.76 875.608 1311.18 875.608ZM1337.71 863.704C1335.41 863.704 1333.34 863.256 1331.5 862.36C1329.67 861.464 1328.24 860.248 1327.22 858.712C1326.19 857.176 1325.68 855.448 1325.68 853.528C1325.68 851.224 1326.28 849.411 1327.47 848.088C1328.67 846.723 1330.61 845.763 1333.3 845.208C1335.98 844.611 1339.55 844.312 1343.98 844.312H1347.38V849.304H1344.05C1342.38 849.304 1340.98 849.368 1339.82 849.496C1338.71 849.624 1337.8 849.859 1337.07 850.2C1336.35 850.499 1335.81 850.883 1335.47 851.352C1335.17 851.821 1335.02 852.419 1335.02 853.144C1335.02 854.339 1335.43 855.32 1336.24 856.088C1337.09 856.856 1338.31 857.24 1339.89 857.24C1341.12 857.24 1342.21 856.963 1343.15 856.408C1344.13 855.811 1344.9 855.021 1345.46 854.04C1346.01 853.016 1346.29 851.864 1346.29 850.584V843.224C1346.29 841.347 1345.86 840.024 1345.01 839.256C1344.15 838.445 1342.7 838.04 1340.66 838.04C1338.95 838.04 1337.14 838.317 1335.22 838.872C1333.34 839.384 1331.46 840.173 1329.58 841.24L1326.96 834.776C1328.07 834.008 1329.41 833.347 1330.99 832.792C1332.61 832.195 1334.3 831.747 1336.05 831.448C1337.8 831.107 1339.46 830.936 1341.04 830.936C1344.32 830.936 1347.01 831.427 1349.1 832.408C1351.24 833.347 1352.84 834.819 1353.9 836.824C1354.97 838.787 1355.5 841.325 1355.5 844.44V863H1346.48V856.664H1346.93C1346.67 858.115 1346.12 859.373 1345.26 860.44C1344.45 861.464 1343.41 862.275 1342.13 862.872C1340.85 863.427 1339.38 863.704 1337.71 863.704ZM1333.1 825.816L1328.56 825.56C1328.77 822.403 1329.6 819.949 1331.06 818.2C1332.55 816.408 1334.43 815.512 1336.69 815.512C1337.67 815.512 1338.56 815.704 1339.38 816.088C1340.19 816.429 1341.1 816.963 1342.13 817.688C1343.02 818.285 1343.75 818.712 1344.3 818.968C1344.86 819.224 1345.41 819.352 1345.97 819.352C1347.08 819.352 1347.95 819.011 1348.59 818.328C1349.23 817.645 1349.66 816.621 1349.87 815.256L1354.42 815.512C1354.24 818.669 1353.41 821.144 1351.92 822.936C1350.47 824.685 1348.59 825.56 1346.29 825.56C1345.39 825.56 1344.52 825.389 1343.66 825.048C1342.85 824.707 1341.91 824.152 1340.85 823.384C1339.99 822.787 1339.29 822.36 1338.74 822.104C1338.18 821.848 1337.6 821.72 1337.01 821.72C1335.9 821.72 1335.02 822.061 1334.38 822.744C1333.79 823.427 1333.36 824.451 1333.1 825.816ZM1377.82 863.704C1374.45 863.704 1371.5 863.043 1368.98 861.72C1366.51 860.397 1364.59 858.499 1363.22 856.024C1361.86 853.549 1361.18 850.627 1361.18 847.256C1361.18 843.885 1361.86 840.984 1363.22 838.552C1364.59 836.12 1366.51 834.243 1368.98 832.92C1371.5 831.597 1374.45 830.936 1377.82 830.936C1381.19 830.936 1384.11 831.597 1386.58 832.92C1389.1 834.243 1391.04 836.141 1392.41 838.616C1393.82 841.048 1394.52 843.928 1394.52 847.256C1394.52 850.627 1393.82 853.549 1392.41 856.024C1391.04 858.499 1389.1 860.397 1386.58 861.72C1384.11 863.043 1381.19 863.704 1377.82 863.704ZM1377.82 856.472C1379.91 856.472 1381.59 855.725 1382.87 854.232C1384.15 852.696 1384.79 850.371 1384.79 847.256C1384.79 844.141 1384.15 841.859 1382.87 840.408C1381.59 838.915 1379.91 838.168 1377.82 838.168C1375.77 838.168 1374.1 838.915 1372.82 840.408C1371.54 841.859 1370.9 844.141 1370.9 847.256C1370.9 850.371 1371.54 852.696 1372.82 854.232C1374.1 855.725 1375.77 856.472 1377.82 856.472ZM1434.53 863.704C1430.82 863.704 1427.62 863.043 1424.93 861.72C1422.29 860.355 1420.24 858.456 1418.79 856.024C1417.38 853.549 1416.68 850.648 1416.68 847.32C1416.68 844.077 1417.36 841.24 1418.72 838.808C1420.09 836.333 1421.99 834.413 1424.42 833.048C1426.89 831.64 1429.69 830.936 1432.8 830.936C1435.88 830.936 1438.52 831.597 1440.74 832.92C1442.96 834.2 1444.67 836.035 1445.86 838.424C1447.1 840.813 1447.72 843.651 1447.72 846.936V849.368H1424.61V844.376H1440.74L1439.72 845.272C1439.72 842.669 1439.14 840.707 1437.99 839.384C1436.88 838.019 1435.28 837.336 1433.19 837.336C1431.61 837.336 1430.27 837.699 1429.16 838.424C1428.05 839.149 1427.19 840.195 1426.6 841.56C1426 842.925 1425.7 844.568 1425.7 846.488V847C1425.7 849.176 1426.02 850.968 1426.66 852.376C1427.34 853.741 1428.35 854.765 1429.67 855.448C1431.03 856.131 1432.72 856.472 1434.72 856.472C1436.43 856.472 1438.16 856.216 1439.91 855.704C1441.66 855.192 1443.24 854.403 1444.64 853.336L1447.2 859.8C1445.63 860.995 1443.68 861.955 1441.38 862.68C1439.12 863.363 1436.84 863.704 1434.53 863.704ZM1471.98 863V817.88H1481.9V854.616H1502.77V863H1471.98ZM1507.45 825.496V816.472H1517.89V825.496H1507.45ZM1507.84 863V831.576H1517.5V863H1507.84ZM1537.19 863.704C1534.46 863.704 1532.04 863.043 1529.95 861.72C1527.91 860.397 1526.31 858.499 1525.15 856.024C1524 853.549 1523.43 850.627 1523.43 847.256C1523.43 843.885 1524 840.984 1525.15 838.552C1526.31 836.12 1527.91 834.243 1529.95 832.92C1532.04 831.597 1534.46 830.936 1537.19 830.936C1539.66 830.936 1541.84 831.533 1543.71 832.728C1545.63 833.923 1546.94 835.48 1547.62 837.4H1546.91V817.88H1556.58V863H1547.11V856.792H1547.68C1547.08 858.883 1545.8 860.568 1543.84 861.848C1541.92 863.085 1539.7 863.704 1537.19 863.704ZM1540.07 856.472C1542.16 856.472 1543.84 855.725 1545.12 854.232C1546.4 852.696 1547.04 850.371 1547.04 847.256C1547.04 844.141 1546.4 841.859 1545.12 840.408C1543.84 838.915 1542.16 838.168 1540.07 838.168C1538.02 838.168 1536.35 838.915 1535.07 840.408C1533.79 841.859 1533.15 844.141 1533.15 847.256C1533.15 850.371 1533.79 852.696 1535.07 854.232C1536.35 855.725 1538.02 856.472 1540.07 856.472ZM1580.34 863.704C1576.63 863.704 1573.43 863.043 1570.74 861.72C1568.1 860.355 1566.05 858.456 1564.6 856.024C1563.19 853.549 1562.49 850.648 1562.49 847.32C1562.49 844.077 1563.17 841.24 1564.54 838.808C1565.9 836.333 1567.8 834.413 1570.23 833.048C1572.71 831.64 1575.5 830.936 1578.62 830.936C1581.69 830.936 1584.33 831.597 1586.55 832.92C1588.77 834.2 1590.48 836.035 1591.67 838.424C1592.91 840.813 1593.53 843.651 1593.53 846.936V849.368H1570.42V844.376H1586.55L1585.53 845.272C1585.53 842.669 1584.95 840.707 1583.8 839.384C1582.69 838.019 1581.09 837.336 1579 837.336C1577.42 837.336 1576.08 837.699 1574.97 838.424C1573.86 839.149 1573.01 840.195 1572.41 841.56C1571.81 842.925 1571.51 844.568 1571.51 846.488V847C1571.51 849.176 1571.83 850.968 1572.47 852.376C1573.16 853.741 1574.16 854.765 1575.48 855.448C1576.85 856.131 1578.53 856.472 1580.54 856.472C1582.24 856.472 1583.97 856.216 1585.72 855.704C1587.47 855.192 1589.05 854.403 1590.46 853.336L1593.02 859.8C1591.44 860.995 1589.5 861.955 1587.19 862.68C1584.93 863.363 1582.65 863.704 1580.34 863.704ZM1599.15 863V831.576H1608.62V839.256H1607.98C1608.49 836.696 1609.6 834.733 1611.31 833.368C1613.06 831.96 1615.36 831.149 1618.22 830.936L1621.04 830.744L1621.61 838.872L1616.17 839.448C1613.74 839.661 1611.93 840.365 1610.73 841.56C1609.58 842.755 1609.01 844.483 1609.01 846.744V863H1599.15ZM1635.84 863.704C1633.53 863.704 1631.46 863.256 1629.63 862.36C1627.79 861.464 1626.36 860.248 1625.34 858.712C1624.32 857.176 1623.8 855.448 1623.8 853.528C1623.8 851.224 1624.4 849.411 1625.6 848.088C1626.79 846.723 1628.73 845.763 1631.42 845.208C1634.11 844.611 1637.67 844.312 1642.11 844.312H1645.5V849.304H1642.17C1640.51 849.304 1639.1 849.368 1637.95 849.496C1636.84 849.624 1635.92 849.859 1635.2 850.2C1634.47 850.499 1633.94 850.883 1633.6 851.352C1633.3 851.821 1633.15 852.419 1633.15 853.144C1633.15 854.339 1633.55 855.32 1634.36 856.088C1635.22 856.856 1636.43 857.24 1638.01 857.24C1639.25 857.24 1640.34 856.963 1641.28 856.408C1642.26 855.811 1643.03 855.021 1643.58 854.04C1644.13 853.016 1644.41 851.864 1644.41 850.584V843.224C1644.41 841.347 1643.99 840.024 1643.13 839.256C1642.28 838.445 1640.83 838.04 1638.78 838.04C1637.07 838.04 1635.26 838.317 1633.34 838.872C1631.46 839.384 1629.59 840.173 1627.71 841.24L1625.08 834.776C1626.19 834.008 1627.54 833.347 1629.12 832.792C1630.74 832.195 1632.42 831.747 1634.17 831.448C1635.92 831.107 1637.59 830.936 1639.16 830.936C1642.45 830.936 1645.14 831.427 1647.23 832.408C1649.36 833.347 1650.96 834.819 1652.03 836.824C1653.09 838.787 1653.63 841.325 1653.63 844.44V863H1644.6V856.664H1645.05C1644.8 858.115 1644.24 859.373 1643.39 860.44C1642.58 861.464 1641.53 862.275 1640.25 862.872C1638.97 863.427 1637.5 863.704 1635.84 863.704ZM1660.84 863V831.576H1670.31V837.464H1669.61C1670.59 835.373 1672.04 833.773 1673.96 832.664C1675.92 831.512 1678.14 830.936 1680.61 830.936C1683.13 830.936 1685.2 831.427 1686.82 832.408C1688.44 833.347 1689.66 834.797 1690.47 836.76C1691.28 838.68 1691.69 841.133 1691.69 844.12V863H1682.02V844.568C1682.02 843.117 1681.83 841.944 1681.45 841.048C1681.1 840.109 1680.57 839.448 1679.85 839.064C1679.16 838.637 1678.29 838.424 1677.22 838.424C1675.86 838.424 1674.66 838.723 1673.64 839.32C1672.66 839.875 1671.89 840.685 1671.33 841.752C1670.78 842.819 1670.5 844.056 1670.5 845.464V863H1660.84ZM1714.2 863.704C1710.78 863.704 1707.8 863.043 1705.24 861.72C1702.72 860.355 1700.78 858.435 1699.41 855.96C1698.05 853.485 1697.36 850.563 1697.36 847.192C1697.36 843.821 1698.05 840.92 1699.41 838.488C1700.78 836.056 1702.72 834.2 1705.24 832.92C1707.8 831.597 1710.78 830.936 1714.2 830.936C1716.24 830.936 1718.27 831.235 1720.28 831.832C1722.32 832.429 1723.99 833.283 1725.27 834.392L1722.58 841.048C1721.56 840.195 1720.36 839.533 1719 839.064C1717.63 838.552 1716.35 838.296 1715.16 838.296C1712.64 838.296 1710.68 839.085 1709.27 840.664C1707.9 842.2 1707.22 844.397 1707.22 847.256C1707.22 850.072 1707.9 852.291 1709.27 853.912C1710.68 855.491 1712.64 856.28 1715.16 856.28C1716.35 856.28 1717.63 856.045 1719 855.576C1720.36 855.107 1721.56 854.424 1722.58 853.528L1725.27 860.184C1723.99 861.251 1722.32 862.104 1720.28 862.744C1718.23 863.384 1716.2 863.704 1714.2 863.704ZM1713.43 875.608C1712.15 875.608 1710.89 875.48 1709.65 875.224C1708.41 874.968 1707.35 874.627 1706.45 874.2L1707.8 870.104C1708.52 870.445 1709.27 870.723 1710.04 870.936C1710.85 871.149 1711.68 871.256 1712.53 871.256C1713.64 871.256 1714.47 871.107 1715.03 870.808C1715.58 870.552 1715.86 870.147 1715.86 869.592C1715.86 869.165 1715.67 868.845 1715.28 868.632C1714.94 868.419 1714.34 868.312 1713.49 868.312C1713.11 868.312 1712.72 868.312 1712.34 868.312C1712 868.355 1711.57 868.461 1711.06 868.632L1709.78 867.352L1710.61 861.72H1715.48L1714.64 866.584L1712.28 865.688C1712.79 865.517 1713.3 865.389 1713.81 865.304C1714.32 865.219 1714.79 865.176 1715.22 865.176C1716.5 865.176 1717.59 865.368 1718.48 865.752C1719.38 866.136 1720.08 866.669 1720.6 867.352C1721.11 868.035 1721.36 868.888 1721.36 869.912C1721.36 871.064 1721.02 872.067 1720.34 872.92C1719.66 873.773 1718.72 874.435 1717.52 874.904C1716.37 875.373 1715.01 875.608 1713.43 875.608ZM1739.96 863.704C1737.66 863.704 1735.59 863.256 1733.75 862.36C1731.92 861.464 1730.49 860.248 1729.47 858.712C1728.44 857.176 1727.93 855.448 1727.93 853.528C1727.93 851.224 1728.53 849.411 1729.72 848.088C1730.92 846.723 1732.86 845.763 1735.55 845.208C1738.23 844.611 1741.8 844.312 1746.23 844.312H1749.63V849.304H1746.3C1744.63 849.304 1743.23 849.368 1742.07 849.496C1740.96 849.624 1740.05 849.859 1739.32 850.2C1738.6 850.499 1738.06 850.883 1737.72 851.352C1737.42 851.821 1737.27 852.419 1737.27 853.144C1737.27 854.339 1737.68 855.32 1738.49 856.088C1739.34 856.856 1740.56 857.24 1742.14 857.24C1743.37 857.24 1744.46 856.963 1745.4 856.408C1746.38 855.811 1747.15 855.021 1747.71 854.04C1748.26 853.016 1748.54 851.864 1748.54 850.584V843.224C1748.54 841.347 1748.11 840.024 1747.26 839.256C1746.4 838.445 1744.95 838.04 1742.91 838.04C1741.2 838.04 1739.39 838.317 1737.47 838.872C1735.59 839.384 1733.71 840.173 1731.83 841.24L1729.21 834.776C1730.32 834.008 1731.66 833.347 1733.24 832.792C1734.86 832.195 1736.55 831.747 1738.3 831.448C1740.05 831.107 1741.71 830.936 1743.29 830.936C1746.57 830.936 1749.26 831.427 1751.35 832.408C1753.49 833.347 1755.09 834.819 1756.15 836.824C1757.22 838.787 1757.75 841.325 1757.75 844.44V863H1748.73V856.664H1749.18C1748.92 858.115 1748.37 859.373 1747.51 860.44C1746.7 861.464 1745.66 862.275 1744.38 862.872C1743.1 863.427 1741.63 863.704 1739.96 863.704Z" fill="#196AC9"/>
<rect width="90" height="90" transform="translate(1777 931)" fill="#F8F9FA"/>
<path d="M1802.31 947.26L1831.05 976L1802.31 1004.74V947.26ZM1842.62 949.75V1002.25H1835.12V949.75H1842.62Z" fill="#1468C8"/>
</g>
<defs>
<filter id="filter0_dd_2002_177" x="0" y="0" width="1980" height="1140" filterUnits="userSpaceOnUse" color-interpolation-filters="sRGB">
<feFlood flood-opacity="0" result="BackgroundImageFix"/>
<feColorMatrix in="SourceAlpha" type="matrix" values="0 0 0 0 0 0 0 0 0 0 0 0 0 0 0 0 0 0 127 0" result="hardAlpha"/>
<feOffset dy="4"/>
<feGaussianBlur stdDeviation="2"/>
<feComposite in2="hardAlpha" operator="out"/>
<feColorMatrix type="matrix" values="0 0 0 0 0 0 0 0 0 0 0 0 0 0 0 0 0 0 0.25 0"/>
<feBlend mode="normal" in2="BackgroundImageFix" result="effect1_dropShadow_2002_177"/>
<feColorMatrix in="SourceAlpha" type="matrix" values="0 0 0 0 0 0 0 0 0 0 0 0 0 0 0 0 0 0 127 0" result="hardAlpha"/>
<feOffset dx="4" dy="4"/>
<feGaussianBlur stdDeviation="15"/>
<feComposite in2="hardAlpha" operator="out"/>
<feColorMatrix type="matrix" values="0 0 0 0 0 0 0 0 0 0 0 0 0 0 0 0 0 0 0.25 0"/>
<feBlend mode="normal" in2="effect1_dropShadow_2002_177" result="effect2_dropShadow_2002_177"/>
<feBlend mode="normal" in="SourceGraphic" in2="effect2_dropShadow_2002_177" result="shape"/>
</filter>
<linearGradient id="paint0_linear_2002_177" x1="986" y1="282" x2="986" y2="732.013" gradientUnits="userSpaceOnUse">
<stop stop-color="#005BC4"/>
<stop offset="1" stop-color="#005BC4" stop-opacity="0.3"/>
</linearGradient>
<clipPath id="clip0_2002_177">
<rect width="1920" height="1080" fill="white" transform="translate(26 26)"/>
</clipPath>
<clipPath id="clip1_2002_177">
<rect width="600" height="600" fill="white" transform="translate(686 132)"/>
</clipPath>
</defs>
</svg>
